<svg xmlns="http://www.w3.org/2000/svg" xmlns:xlink="http://www.w3.org/1999/xlink" viewBox="0 0 438.29 470.55"><defs><style>.cls-1{fill:url(#linear-gradient);}.cls-2{fill:url(#linear-gradient-2);}.cls-3{fill:url(#linear-gradient-3);}.cls-4{fill:#00c7e5;}.cls-5{fill:#0052cc;}.cls-6{fill:#172b4d;}.cls-7{fill:#f0d0b4;}.cls-8{fill:url(#linear-gradient-4);}.cls-9{fill:#e6fcff;}.cls-10{fill:#b3f5ff;}.cls-11{fill:#42526e;}.cls-12{fill:#008da6;}.cls-13{fill:#79e2f2;}.cls-14{fill:url(#linear-gradient-5);}.cls-15{fill:#00b8d9;}.cls-16{fill:#00a3bf;}.cls-17{fill:url(#linear-gradient-6);}.cls-18,.cls-19{opacity:0.3;}.cls-18{fill:url(#linear-gradient-7);}.cls-19{fill:url(#linear-gradient-8);}.cls-20{fill:url(#linear-gradient-9);}.cls-21{fill:#4c9aff;}.cls-22{fill:#091e42;opacity:0.1;}.cls-23{fill:none;}.cls-24{fill:#ff991f;}.cls-25{fill:#9c7761;}.cls-26{fill:#b08874;}.cls-27{fill:url(#linear-gradient-10);}</style><linearGradient id="linear-gradient" x1="187.31" y1="199.55" x2="293.26" y2="16.03" gradientUnits="userSpaceOnUse"><stop offset="0.44" stop-color="#00b8d9"/><stop offset="0.46" stop-color="#07bbdb"/><stop offset="0.55" stop-color="#30c9e3"/><stop offset="0.64" stop-color="#50d4e9"/><stop offset="0.73" stop-color="#67dcee"/><stop offset="0.82" stop-color="#74e0f1"/><stop offset="0.89" stop-color="#79e2f2"/></linearGradient><linearGradient id="linear-gradient-2" x1="231.78" y1="441.31" x2="231.78" y2="137.2" gradientUnits="userSpaceOnUse"><stop offset="0.37" stop-color="#79e2f2"/><stop offset="0.76" stop-color="#b3f5ff"/></linearGradient><linearGradient id="linear-gradient-3" x1="93.25" y1="441.31" x2="93.25" y2="137.2" gradientUnits="userSpaceOnUse"><stop offset="0.12" stop-color="#00b8d9"/><stop offset="0.14" stop-color="#07bbdb"/><stop offset="0.29" stop-color="#30c9e3"/><stop offset="0.43" stop-color="#50d4e9"/><stop offset="0.57" stop-color="#67dcee"/><stop offset="0.7" stop-color="#74e0f1"/><stop offset="0.82" stop-color="#79e2f2"/></linearGradient><linearGradient id="linear-gradient-4" x1="316.24" y1="408.39" x2="316.24" y2="378.01" gradientUnits="userSpaceOnUse"><stop offset="0" stop-color="#0052cc"/><stop offset="1" stop-color="#2684ff"/></linearGradient><linearGradient id="linear-gradient-5" x1="286.4" y1="431.79" x2="450.29" y2="147.92" gradientTransform="translate(741.17 578.51) rotate(180)" gradientUnits="userSpaceOnUse"><stop offset="0" stop-color="#00b8d9"/><stop offset="0.03" stop-color="#07bbdb"/><stop offset="0.18" stop-color="#30c9e3"/><stop offset="0.34" stop-color="#50d4e9"/><stop offset="0.49" stop-color="#67dcee"/><stop offset="0.63" stop-color="#74e0f1"/><stop offset="0.76" stop-color="#79e2f2"/></linearGradient><linearGradient id="linear-gradient-6" x1="488.14" y1="394.56" x2="520.36" y2="394.56" gradientTransform="translate(-245.73)" gradientUnits="userSpaceOnUse"><stop offset="0" stop-color="#00b8d9"/><stop offset="0.41" stop-color="#00bddd"/><stop offset="0.78" stop-color="#00c7e5"/></linearGradient><linearGradient id="linear-gradient-7" x1="93.17" y1="470.79" x2="344.46" y2="219.5" gradientUnits="userSpaceOnUse"><stop offset="0" stop-color="#fff"/><stop offset="1" stop-color="#fff" stop-opacity="0"/></linearGradient><linearGradient id="linear-gradient-8" x1="93.17" y1="541.23" x2="406.73" y2="227.68" xlink:href="#linear-gradient-7"/><linearGradient id="linear-gradient-9" x1="138.37" y1="374.81" x2="138.37" y2="161.34" gradientUnits="userSpaceOnUse"><stop offset="0" stop-color="#79e2f2"/><stop offset="0.17" stop-color="#92eaf8"/><stop offset="0.35" stop-color="#a5f0fc"/><stop offset="0.54" stop-color="#aff4fe"/><stop offset="0.76" stop-color="#b3f5ff"/></linearGradient><linearGradient id="linear-gradient-10" x1="1193.24" y1="403.62" x2="1178.85" y2="378.69" gradientTransform="translate(-1052.05)" gradientUnits="userSpaceOnUse"><stop offset="0.25" stop-color="#344563"/><stop offset="0.41" stop-color="#3d4e6a"/><stop offset="1" stop-color="#5e6c84"/></linearGradient></defs><title>Private</title><g id="Layer_2" data-name="Layer 2"><g id="Layer_1-2" data-name="Layer 1"><path class="cls-1" d="M357.55,152.7H303.12v-27a71.26,71.26,0,1,0-142.51,0v27H106.17v-27a125.69,125.69,0,0,1,251.38,0Z"/><rect id="_Rectangle_" data-name="&lt;Rectangle&gt;" class="cls-2" x="25.55" y="137.2" width="412.46" height="304.11" rx="9.07" ry="9.07"/><path class="cls-3" d="M34.51,137.2H161a0,0,0,0,1,0,0V441.31a0,0,0,0,1,0,0H34.51a9,9,0,0,1-9-9V146.16A9,9,0,0,1,34.51,137.2Z"/><path class="cls-4" d="M295.72,345.18a2.26,2.26,0,0,0,1.7-.35c.7-.56.69-1.55.63-3.2a11.27,11.27,0,0,0-1.12-4.7c-.14-.28-.67-1.34-.94-1.26-.08,0-.11.16-.13.27a2,2,0,0,0,.19,1.2,9.62,9.62,0,0,1,.5,1.56.71.71,0,0,0-1.27.38,1.08,1.08,0,0,0-.8.07c-.51.32-.39,1.19-.42,1.89a3.61,3.61,0,0,0,.44,1.91Z"/><path class="cls-5" d="M329.09,365c.08.23.18.59.29,1a29.18,29.18,0,0,1,.69,6.18c.14,3,0,2.12.11,3.66s.27,2.75-.33,4a4.71,4.71,0,0,1-.68,1l-10.52,9.82-2.71-1.82,10.17-11.11-1.71-12.77,2.45-.65Z"/><path class="cls-4" d="M322.46,379.53c-1.09.15-3.15.4-8.71.82a16.38,16.38,0,0,0-1,1.47,17.27,17.27,0,0,0-2.2,5.3c-3.77,15.5-4,16-4,16q-.8,4.47-1.52,9.06c-1,6.06-2.27,17.53-3,23.33a2.31,2.31,0,0,0,.71,1,2.47,2.47,0,0,0,1.1.51c1.43.2,3.93-7.32,3.93-7.32A85.84,85.84,0,0,0,311,414.56c0-1.62-.76-3-.9-3.88q2.43-4.64,4.88-9.31l3.76-7.27Z"/><path class="cls-4" d="M318.7,394.1q-.06,8.72,0,17.62c.06,7.25.18,17.27.35,24.32a1.82,1.82,0,0,0,.69.36,2.15,2.15,0,0,0,1.25-.13,3.65,3.65,0,0,0,1.69-1,143.23,143.23,0,0,0,2.5-16.13c.4-6.3-1-5.85-.66-10.94.54-7.73,2.59-18.73,2.05-22.3-.09-.59-.58-2.85-.88-4.15a10.39,10.39,0,0,0-1-2.67,9.08,9.08,0,0,1-1.22.31c-.46.09-.82.13-1,.16Z"/><path class="cls-6" d="M319.45,350.37c-.41-.63-.95-1.6-.6-2.09s1-.12,2.82-.06c2.55.1,2.83-.34,4.13.08a4.86,4.86,0,0,1,2.57,1.78,5.57,5.57,0,0,1,.48,4.6,7.3,7.3,0,0,1-3.32,4.24l-1.39.88L320.21,353Z"/><path class="cls-7" d="M324,362.18h-5.31a10,10,0,0,0,.76-3,9.81,9.81,0,0,0-.19-3l3.24-.15c0,.19.1.46.19.79a2.78,2.78,0,0,0,.35.9,1.87,1.87,0,0,0,1.42.61Z"/><path class="cls-8" d="M325.11,408.18c0-.1,0-.19,0-.3.21-3.08.67-6.67,1.1-10.14.66-5.18,1.28-10.07.94-12.29-.09-.62-.6-2.93-.89-4.19a10.77,10.77,0,0,0-1.08-2.82L325,378l-.47.14a11.61,11.61,0,0,1-1.16.3l-.79.12-.18,0c-1,.15-3,.4-8.66.83l-.26,0-.16.2a16.73,16.73,0,0,0-1.09,1.52,17.86,17.86,0,0,0-2.27,5.48c-3.36,13.83-3.93,15.69-4,15.92l0,.05v.09c-.22,1.25-.44,2.52-.66,3.8,1.69,1.38,4.2,1.78,6.67,1.62,1.2-2.27,2.39-4.53,3.58-6.82l2.62-5.06c0,3.74,0,7.5,0,11.24A12.58,12.58,0,0,0,325.11,408.18Z"/><path class="cls-4" d="M324.84,389.51a8.09,8.09,0,0,0,1.74-3.63,10.87,10.87,0,0,0-.3-4.62,11,11,0,0,0-.4-1.34,9.91,9.91,0,0,0-.68-1.48L325,378l-.47.14a11.61,11.61,0,0,1-1.16.3c-.33.06-.6.1-.8.12l-.17,0c-1,.15-3,.4-8.66.83l-.26,0-.16.2c-.11.15-.31.42-.57.74-.54.71-1,1.21-1,1.26-1.3,1.59-3.08,10.15-3.08,10.15-.35,1.67-1.17,4.36-2,7.89-.16.66-1.93,6.4-1.43,6.82,1.69,1.38,4.2,1.78,6.67,1.62,1.2-2.27,2.39-4.53,3.58-6.82,1.44-2.77,2.66-5.38,5-7.54A42.1,42.1,0,0,0,324.84,389.51Z"/><path class="cls-7" d="M319.45,350.37l-.75,1.75-2.26,1.39c.19.32.37.65.55,1-.06,1.16-.13,2.31-.19,3.47a8.45,8.45,0,0,0,2.21,1.17c.31.11.44.1,3.16.2,1.17,0,1.76.05,2-.26a1.5,1.5,0,0,0,.09-1.44c-.17-.44-.39-.4-.59-.82-.32-.66.07-1.05-.13-1.67s-.66-.49-1.39-1.25-.66-1.43-1.48-2.44A4.43,4.43,0,0,0,319.45,350.37Z"/><path class="cls-4" d="M299.6,362.17a43.51,43.51,0,0,0,7,3.66,42.51,42.51,0,0,0,6.09,2c0,1.55-.08,3.18-.2,4.89a76.2,76.2,0,0,1-1.09,8.26,22.31,22.31,0,0,0,15.48,1.18,54.3,54.3,0,0,1,1.61-11.84c.24-1,.49-1.88.77-2.77a3.62,3.62,0,0,0-1.44-4.09l0,0s-.22-.15-.56-.35c0,0-.63-.38-1.28-.7-2.72-1.36-7.7-1.82-7.7-1.82-6.81-.64-6.57-.52-7.89-.73a32.74,32.74,0,0,1-7.17-2q-2.37-7.23-4.75-14.46l-3.77,1c.61,3.1,1.38,6.41,2.37,9.89Q298.25,358.49,299.6,362.17Z"/><path class="cls-9" d="M322.92,437.67h-4.1c.06-.7.1-1.45.11-2.24,0-.49,0-1,0-1.42a11,11,0,0,1,2-.16,11.86,11.86,0,0,1,2.05.2,7.42,7.42,0,0,0-.28,2.13A8.23,8.23,0,0,0,322.92,437.67Z"/><path class="cls-10" d="M305.33,437.81h-4.1c0-.73.7-2.95.73-3.68l2.26-.27,2-.27c-.18.67-.35,1.37-.51,2.12S305.44,437.14,305.33,437.81Z"/><path id="_Path_" data-name="&lt;Path&gt;" class="cls-11" d="M319.66,437.37s0,0,0,0-.29-.64-.6-.77c-.58-.26-.05,1.48-1.34,2.61a4.85,4.85,0,0,1-1.62.93.52.52,0,0,0-.29.5v.49h7.85a9,9,0,0,0-.23-2.32,9.31,9.31,0,0,0-.47-1.46Z"/><path id="_Path_2" data-name="&lt;Path&gt;" class="cls-12" d="M302.08,437.51l0,0c-.07,0-.29-.64-.59-.77-.59-.26-1.55,1.48-3.26,2.6a7,7,0,0,1-2.14.94.5.5,0,0,0-.38.5v.48h10.37a9,9,0,0,0-.23-2.32,9.16,9.16,0,0,0-.47-1.45Z"/><path class="cls-6" d="M317,354.48a.83.83,0,0,0-.29.39.87.87,0,0,0,0,.53,3.32,3.32,0,0,0,.88.3,2.9,2.9,0,0,0,.68.07c0,.18-.05.42-.09.71-.1.76-.16.83-.23.86-.24.14-.74-.14-.93-.54a1.07,1.07,0,0,1-.1-.47,1.51,1.51,0,0,0-.51.82,1.58,1.58,0,0,0,.2,1.19,2.17,2.17,0,0,0,1.65,1h.11a19.76,19.76,0,0,0,3.34.09c1.67-.5,1.55-5.61,1.55-5.83l-1.86-1.11a2.41,2.41,0,0,1,.23,2.08c-.06.16-.4,1-1.09,1.16s-1.1-.65-2.49-1A4.6,4.6,0,0,0,317,354.48Z"/><circle class="cls-4" cx="292.56" cy="242.34" r="8.46"/><path class="cls-9" d="M343.79,195.5a38.41,38.41,0,1,0-64.28,18,15.87,15.87,0,0,1,4.21,15.1l-.06.26,23.06,5.74.06-.26A15.91,15.91,0,0,1,317.62,223,38.39,38.39,0,0,0,343.79,195.5Z"/><path class="cls-13" d="M295.86,214.5l-4.8-1.2a4.95,4.95,0,1,1,6-3.6ZM292.25,205a3.52,3.52,0,0,0-.85,6.94l3.42.85.85-3.42a3.52,3.52,0,0,0-2.57-4.26A3.54,3.54,0,0,0,292.25,205Z"/><path class="cls-13" d="M308.68,217.54a4.91,4.91,0,0,1-1.19-.15l-4.8-1.19,1.19-4.8a5,5,0,1,1,4.8,6.14Zm-4.26-2.38,3.42.85a3.52,3.52,0,1,0-2.57-4.27Z"/><polygon class="cls-13" points="299.99 232.95 298.61 232.61 302.69 216.2 295.86 214.5 291.77 230.91 290.39 230.56 294.82 212.77 304.42 215.16 299.99 232.95"/><path class="cls-4" d="M305.55,239.33l1.17-4.7-23.06-5.74-1.17,4.7a1.9,1.9,0,0,0,1.39,2.3,1.91,1.91,0,0,0-2.31,1.39l-.71,2.85a1.91,1.91,0,0,0,1.39,2.31l19.37,4.82a1.9,1.9,0,0,0,2.3-1.39l.71-2.85a1.9,1.9,0,0,0-1.38-2.31A1.89,1.89,0,0,0,305.55,239.33Z"/><path id="_Rectangle_2" data-name="&lt;Rectangle&gt;" class="cls-14" d="M311.84,137.2H438.29a0,0,0,0,1,0,0V441.31a0,0,0,0,1,0,0H311.84a9,9,0,0,1-9-9V146.16a9,9,0,0,1,9-9Z" transform="translate(741.17 578.51) rotate(-180)"/><path class="cls-10" d="M314.79,148.72a37.88,37.88,0,0,0-11.91-.72v66.78l.16,0,.84-3.41a5,5,0,1,1,3.61,6l-3.41-.85-1.2,4.81v12.32l3.84,1,.06-.26A15.91,15.91,0,0,1,317.62,223a38.41,38.41,0,0,0-2.83-74.28Z"/><path class="cls-10" d="M304.42,215.16l3.41.85a3.52,3.52,0,1,0-2.56-4.27l-.85,3.42Z"/><path class="cls-13" d="M307.49,217.39a4.94,4.94,0,0,0,6-3.6,5,5,0,1,0-9.61-2.39l-.84,3.41-.16,0v6.57l1.2-4.81Zm-2.22-5.65a3.52,3.52,0,1,1,2.56,4.27l-3.41-.85h0Z"/><path class="cls-15" d="M302.88,247.13a1.89,1.89,0,0,0,1-1.26l.71-2.85a1.9,1.9,0,0,0-1.38-2.31,1.89,1.89,0,0,0,2.3-1.38l1.17-4.7-3.84-1Z"/><path class="cls-16" d="M318.7,407.67c0,1.35,0,2.7,0,4.05.06,6.58.16,15.42.3,22.28a12.28,12.28,0,0,1,1.95-.15,13.13,13.13,0,0,1,2,.18,127.31,127.31,0,0,0,2.27-14.91c.4-6.27-1-5.86-.66-10.87A12.59,12.59,0,0,1,318.7,407.67Z"/><path class="cls-16" d="M306.23,433.59v0c.82-1.89,1.47-3.84,1.47-3.84A85.84,85.84,0,0,0,311,414.56c0-1.62-.76-3-.9-3.88.44-.84.88-1.7,1.33-2.54a10.06,10.06,0,0,1-5.56-1.21c-.29,1.75-.6,3.5-.88,5.28-.63,4-1.41,10.23-2.07,15.72V434l1.34-.16Z"/><path class="cls-16" d="M324.25,359.73c.06-.46.11-.92.17-1.37h0a1.9,1.9,0,0,0-.14-.73c-.17-.44-.39-.4-.59-.82-.32-.66.07-1.05-.13-1.67a.85.85,0,0,0-.34-.47c-.06,1.59-.33,4.37-1.54,4.73a10.59,10.59,0,0,1-2.29,0,11.17,11.17,0,0,1-.24,1.32,33.55,33.55,0,0,1,4.87,1C324.1,361,324.18,360.37,324.25,359.73Z"/><path class="cls-15" d="M311.39,408.14l.5,0c1.2-2.27,2.39-4.53,3.58-6.82l.88-1.71a34.18,34.18,0,0,1,1.74-3c0,3.63,0,7.27,0,10.9.19.08.4.12.6.19a12.59,12.59,0,0,0,5.83.58c.19,0,.39,0,.58-.07,0-.1,0-.19,0-.3.21-3.08.67-6.67,1.1-10.14.66-5.18,1.28-10.07.94-12.29-.06-.37-.26-1.34-.47-2.33-.06-.29-.13-.58-.19-.86a22.4,22.4,0,0,1-8.41.61,22.12,22.12,0,0,1-6-1.58,18.12,18.12,0,0,0-2.2,5.35c-.11.44-.2.83-.31,1.24-.34,1.33-.64,2.65-1,3.91q-1.06,3.93-2,7.89c-.16.66-1.93,6.4-1.43,6.82.2.15.4.3.61.43A10.06,10.06,0,0,0,311.39,408.14Z"/><path class="cls-16" d="M317,356.8c.19.4.69.68.93.54.07,0,.13-.1.23-.86,0-.29.07-.53.09-.71a2.9,2.9,0,0,1-.68-.07,3.81,3.81,0,0,1-.62-.19c0,.27,0,.55-.05.82h0A1,1,0,0,0,317,356.8Z"/><path class="cls-16" d="M320.51,355.69c.69-.14,1-1,1.09-1.16a2.13,2.13,0,0,0,.09-1.28,8.72,8.72,0,0,0-1-1.81,4.61,4.61,0,0,0-1.24-1.07h0l-.75,1.75-2.26,1.39c.19.32.37.65.55,1a4.6,4.6,0,0,1,1,.17C319.41,355,319.79,355.82,320.51,355.69Z"/><path class="cls-12" d="M318.1,382.87a22.4,22.4,0,0,0,8.41-.61c.06.28.13.57.19.86l2.47-2.3a4.71,4.71,0,0,0,.68-1c.6-1.22.44-2.33.33-4s0-.62-.11-3.66a29.18,29.18,0,0,0-.69-6.18l0-.06a3.35,3.35,0,0,0-.24-.89l0-.08h0a3.5,3.5,0,0,0-1.27-1.51l0,0s-.22-.15-.56-.35c0,0-.63-.38-1.28-.7a12.21,12.21,0,0,0-1.92-.73,33.55,33.55,0,0,0-4.87-1l-.91-.1c-6.81-.64-6.57-.52-7.89-.73a32.74,32.74,0,0,1-7.17-2l-.3-.91v7.17c1.13.6,2.36,1.18,3.71,1.74a42.51,42.51,0,0,0,6.09,2c0,1.55-.08,3.18-.2,4.89a76.2,76.2,0,0,1-1.09,8.26l.74.31A22.12,22.12,0,0,0,318.1,382.87Z"/><path class="cls-13" d="M319,434h-.09c0,.46,0,.93,0,1.42s0,.8-.06,1.2a.15.15,0,0,1,.18,0c.31.13.52.81.6.77s0,0,0,0h3.21a6.71,6.71,0,0,1-.14-1.19,7.42,7.42,0,0,1,.28-2.13l-.09,0a13.13,13.13,0,0,0-2-.18A12.28,12.28,0,0,0,319,434Z"/><path class="cls-13" d="M305.38,437.56c.1-.6.2-1.21.34-1.85s.33-1.44.51-2.1v0l-2,.27-1.34.16v3.49h2.48Z"/><path class="cls-12" d="M319.65,437.39c-.08,0-.29-.64-.6-.77a.15.15,0,0,0-.18,0c-.28.22-.05,1.63-1.16,2.6a4.85,4.85,0,0,1-1.62.93.52.52,0,0,0-.29.5v.49h7.85a9,9,0,0,0-.23-2.32,9.31,9.31,0,0,0-.47-1.46h-3.29S319.66,437.39,319.65,437.39Z"/><path class="cls-12" d="M305.83,439a8.89,8.89,0,0,0-.45-1.4l0-.05h-2.48v3.77h3.18A9,9,0,0,0,305.83,439Z"/><path class="cls-12" d="M321.68,359.39c1.21-.36,1.48-3.14,1.54-4.73a.85.85,0,0,1,.34.47c.2.62-.19,1,.13,1.67.2.42.42.38.59.82a1.9,1.9,0,0,1,.14.73h0c-.06.45-.11.91-.17,1.37l1.28-.81a7.3,7.3,0,0,0,3.32-4.24,5.57,5.57,0,0,0-.48-4.6,4.86,4.86,0,0,0-2.57-1.78c-1.3-.42-1.58,0-4.13-.08-1.78-.06-2.51-.36-2.82.06s.19,1.46.6,2.09h0a4.61,4.61,0,0,1,1.24,1.07,8.72,8.72,0,0,1,1,1.81,2.13,2.13,0,0,1-.09,1.28c-.06.16-.4,1-1.09,1.16s-1.1-.65-2.49-1a4.6,4.6,0,0,0-1-.17.83.83,0,0,0-.29.39.87.87,0,0,0,0,.53l.26.11a3.81,3.81,0,0,0,.62.19,2.9,2.9,0,0,0,.68.07c0,.18-.05.42-.09.71-.1.76-.16.83-.23.86-.24.14-.74-.14-.93-.54a1,1,0,0,1-.1-.47h0a1.51,1.51,0,0,0-.51.82,1.58,1.58,0,0,0,.2,1.19,2.17,2.17,0,0,0,1.65,1h.11l1.05.05A10.59,10.59,0,0,0,321.68,359.39Z"/><circle id="_Ellipse_" data-name="&lt;Ellipse&gt;" class="cls-4" cx="97.86" cy="249.82" r="34.09"/><path class="cls-10" d="M94.35,266.75l-15.8-12.9a.92.92,0,0,1-.13-1.29l5.72-7a.92.92,0,0,1,1.29-.13L93.51,252l15.38-18.85a.92.92,0,0,1,1.29-.13l7,5.72a.91.91,0,0,1,.13,1.3L95.64,266.61A.91.91,0,0,1,94.35,266.75Z"/><path id="_Path_3" data-name="&lt;Path&gt;" class="cls-4" d="M117.58,152.32l-20,1a16.22,16.22,0,0,0-15.4,17h0a16.22,16.22,0,0,0,17,15.4l.91,0a9.76,9.76,0,0,1,9.79,6.55l0,.11a.07.07,0,0,0,.14,0l0-.11a9.8,9.8,0,0,1,9.1-7.49h0a16.22,16.22,0,0,0,15.4-17h0A16.22,16.22,0,0,0,117.58,152.32Z"/><path class="cls-15" d="M262,348.37c.34.7.29,1,.18,1.09-.28.3-1.19-.21-1.37.07s.06.4.14.54c.18.29.41.44,1,.8a10.17,10.17,0,0,0,1.3.66c.24.08.55.15,1.09.27l.42.1,1.33-1.73-3-1.59a1.7,1.7,0,0,0-.53-.19A1.72,1.72,0,0,0,262,348.37Z"/><path class="cls-15" d="M264.77,351.9l9.6,10.12.5-.29a3,3,0,0,0,1.85-2.87,2.82,2.82,0,0,0-.85-1.7l-9.77-7Z"/><path class="cls-16" d="M247.54,385.32a18.51,18.51,0,0,1-4.19-3.72,19.24,19.24,0,0,1-4.11-9.08c.54-2.69,2.08-8.12,6.77-11,2.1-1.28,5.47-2.41,6.37-1.39s-2,4.81-2.63,5.67l-5.95,6.92a32.16,32.16,0,0,1,1.86,3.12,30.94,30.94,0,0,1,2.22,5.4C247.77,382.63,247.65,384,247.54,385.32Z"/><path class="cls-16" d="M248.55,379.1a9.28,9.28,0,0,1,.42-1.26,9.8,9.8,0,0,1,.71-1.38c.3.08.77.2,1.36.31s.91.12,1.12.15c1.2.15,3.5.39,9.68.81a18.08,18.08,0,0,1,1.16,1.45,16.18,16.18,0,0,1,2.45,5.23c4.19,15.29,5,21.28,5,21.28s1.68,11.35,3.33,24.23a13.87,13.87,0,0,1-2.68,1.38,8.2,8.2,0,0,1-2.08.43,29.2,29.2,0,0,1-4.24-18.5,52.81,52.81,0,0,0-2.77-9.3c-.88-2.19-3.62-9-5-8.75s-.29,6.78-.18,19c.06,6.56,0,11.93,0,15.51a3.8,3.8,0,0,1-2.92.3,4.11,4.11,0,0,1-1.88-1c-.29-1.33-.68-3.36-1-5.86-.12-1.07-.17-1.94-.24-3.17-.12-2.06-.25-5-.32-8.6-.61-7.27-.77-9.77-.78-10.47a16.29,16.29,0,0,0-.15-1.88c0-.21-.07-.42-.13-.76-.44-2.21-2.4-11.61-1.89-15A24.76,24.76,0,0,1,248.55,379.1Z"/><path class="cls-15" d="M251,421.88c0,.39.07.79.11,1.21.29,2.5.68,4.53,1,5.86a4.6,4.6,0,0,0,.41.34,4.25,4.25,0,0,0,2.11.87,4,4,0,0,0,2.28-.5c0-2,0-4.68,0-7.78Z"/><path class="cls-15" d="M265.19,421.9c.17.88.39,1.8.67,2.74a29.16,29.16,0,0,0,3.19,7.09,8.2,8.2,0,0,0,2.08-.43,13.87,13.87,0,0,0,2.68-1.38c-.35-2.74-.71-5.41-1-7.92C270.24,422,267.7,421.94,265.19,421.9Z"/><path class="cls-12" d="M273.93,425.68q-2.21.72-4.5,1.58c-.86.32-1.71.64-2.53,1,1.21,2.68,2.17,4.67,2.81,6a15.24,15.24,0,0,1,1.9,5.68,10.86,10.86,0,0,1,.06,1.4l3.09,0,.52-.47.81.45H284c.49,0,.84-.39.68-.78l-3.12-.81a9,9,0,0,1-4.09-2.25,8.69,8.69,0,0,1-2-3.7,24.9,24.9,0,0,1-.94-4.19C274.22,428,274,426.63,273.93,425.68Z"/><path class="cls-17" d="M248,379.23q-1.32,5.1-2.46,10.66c-1.41,6.88-2.4,13.43-3.09,19.56a29.73,29.73,0,0,0,4.57,1.88,31.37,31.37,0,0,0,21.17-1.21,30.21,30.21,0,0,0,6.49-3.86c-2.36-9.81-4.44-16.94-5.14-18.69a29.44,29.44,0,0,0-7.65-11.11Z"/><path class="cls-12" d="M248.5,346.92c.83-1.51,3.7-2.24,5.47-1.41a5.2,5.2,0,0,1,.5.3c2.59,1.66,4.71,3,5,5a4,4,0,0,1,0,1.08,2.55,2.55,0,0,1,1.44.5c1.18.9,1.26,2.82.66,4.1a4.35,4.35,0,0,1-5.05,2.08,6,6,0,0,1-.92-.42,17.38,17.38,0,0,1-1.42-1.13C251.39,354.59,247.08,349.49,248.5,346.92Z"/><path class="cls-16" d="M251.84,345.81a15.53,15.53,0,0,1,3.79,2.74c.13.15.18.22.59.27s.9-.06.91.23-.36.82-.33,1.06l1.51,2.68a1,1,0,0,1-.18,1.16l-.65.6-4.05,3.75a42.22,42.22,0,0,0-.27-5.94c0-.37-.09-.73-.14-1.09a4.46,4.46,0,0,0,.45-2.26,4.65,4.65,0,0,0-.66-2A5.14,5.14,0,0,0,251.84,345.81Z"/><path class="cls-16" d="M256.81,360.63l-6,.55a19.62,19.62,0,0,0,0-3.16,18.54,18.54,0,0,0-.56-3.12l6-.54Z"/><path class="cls-15" d="M275.84,359.65v-.07a2.6,2.6,0,0,0-3.3-2.48,45.54,45.54,0,0,1-4.76,1,61.38,61.38,0,0,1-6.71.69c-4,.26-9.94.44-12.88,1.52a11.51,11.51,0,0,0-2.93,1.64l-1,.89A32.82,32.82,0,0,1,248,379.77a51.14,51.14,0,0,0,7.94.59c6.34,0,8.53-1.35,8.53-1.35a34.62,34.62,0,0,1,0-6.75c.24-2.12.59-2.87.22-4.35a7.17,7.17,0,0,0-1.09-2.35,58.81,58.81,0,0,0,8.59-2.64c.62-.25,1.33-.53,2.09-.85A2.57,2.57,0,0,0,275.84,359.65Z"/><path class="cls-4" d="M243.63,373.37c.2,0,.39,0,.59,0l-.42-.64,5.95-6.92c.64-.86,3.58-4.6,2.63-5.67s-4.27.11-6.37,1.39c-4.51,2.73-6.1,7.85-6.7,10.64a1.73,1.73,0,0,0,0,.68c.09.43.2.94.34,1.49A8,8,0,0,1,243.63,373.37Z"/><path class="cls-4" d="M274.37,362v-2a2.66,2.66,0,0,0-3.29-2.58c-1,.25-2.12.48-3.3.67a61.38,61.38,0,0,1-6.71.69c-4,.26-9.94.44-12.88,1.52a11.51,11.51,0,0,0-2.93,1.64l-1,.89A32.82,32.82,0,0,1,248,379.77a51.14,51.14,0,0,0,7.94.59c6.34,0,8.53-1.35,8.53-1.35a34.62,34.62,0,0,1,0-6.75c.24-2.12.59-2.87.22-4.35a7.17,7.17,0,0,0-1.09-2.35,58.81,58.81,0,0,0,8.59-2.64C272.77,362.68,273.53,362.38,274.37,362Z"/><path class="cls-12" d="M251.13,345.92a6.22,6.22,0,0,1,1.24,3.44c.22,1.88,1.27,2.49,2.48,5.4.85,2,1.27,3.05,1,4-.73,2.76-6.06,5-8.34,2.93-1.28-1.13-1.16-3.21-1.09-3.92a8.93,8.93,0,0,1-1.74-4.45,8.57,8.57,0,0,1,0-1.52C244.89,349.74,247.28,345.72,251.13,345.92Z"/><path class="cls-15" d="M266.1,350.17a11.51,11.51,0,0,1-1.1-1.39,2,2,0,0,0-.66-.72c-.34-.2-.66-.2-1.61-.13-.65,0-1.23.08-1.7.13s-.67.19-.69.35.32.46.89.55a.64.64,0,0,0,.07.46c0,.06.13.15.66.27l.6.1c-.14.16-.17.27-.14.36s.41.36,1.77.28a1,1,0,1,0,1.91-.26Z"/><path class="cls-12" d="M251.9,428.07l5.37.05c-.11,1.52-.15,2.79-.17,3.72-.06,3.52.21,4.51.59,5.31a6.47,6.47,0,0,0,1.35,1.94,6.21,6.21,0,0,0,3.07,1.58l.33.64h-4.85a.83.83,0,0,0-.62-.25.73.73,0,0,0-.5.23l-2.78,0c-.05-.34-.12-.95-.21-1.71-.12-1.08-.19-2-.23-2.42a2.2,2.2,0,0,0,0-.33C253.16,436.07,252.83,433.74,251.9,428.07Z"/><polygon class="cls-18" points="337.19 212.22 108.11 441.31 137.2 441.31 351.74 226.77 337.19 212.22"/><polygon class="cls-19" points="178.55 441.31 207.65 441.31 414 234.95 399.45 220.41 178.55 441.31"/><path class="cls-16" d="M225.86,332.59a8.81,8.81,0,0,0-11.62-4.46L71.63,391.69a39.93,39.93,0,0,0-46.08-13.4v20.09a21.74,21.74,0,0,1,5.08-3.17,22.28,22.28,0,1,1-5.05,37.54,9.05,9.05,0,0,0,9,8.56h35.5a40,40,0,0,0,8.67-33.55l88.12-39.27,4.9,11h0a8.48,8.48,0,0,0,6.9,15.49l15.53-6.92-6.91-15.49-4.9-11L192,357.3l9.06,20.35,2.74,6.15,15.53-6.92a8.48,8.48,0,0,0-6.91-15.49h0l-4.9-11,13.9-6.2A8.8,8.8,0,0,0,225.86,332.59Z"/><path id="_Path_4" data-name="&lt;Path&gt;" class="cls-9" d="M208.11,265.35a47.15,47.15,0,1,0-77,36.49,6.3,6.3,0,0,1,2.2,5.92l-10.68,63.88a2.73,2.73,0,0,0,2.69,3.17h71.26a2.73,2.73,0,0,0,2.69-3.17L188.6,307.77a6.29,6.29,0,0,1,2.2-5.93A47,47,0,0,0,208.11,265.35Z"/><path class="cls-20" d="M159.07,218.23a47,47,0,0,0-31.85,14.27,34.11,34.11,0,0,1-11.44,46.32,47.27,47.27,0,0,0,15.34,23,6.3,6.3,0,0,1,2.2,5.92l-10.68,63.88a2.73,2.73,0,0,0,2.69,3.17H161V218.2C160.33,218.2,159.7,218.2,159.07,218.23Z"/><path class="cls-13" d="M131.77,246.39a34,34,0,0,0-4.55-13.89,46.9,46.9,0,0,0-11.44,46.32A34.07,34.07,0,0,0,131.77,246.39Z"/><path id="_Path_5" data-name="&lt;Path&gt;" class="cls-4" d="M383.5,227.59l-42.25,5.82a34.55,34.55,0,0,0-29.52,38.94h0a34.56,34.56,0,0,0,38.95,29.52l1.94-.27a20.81,20.81,0,0,1,22,12.1l.09.21a.16.16,0,0,0,.31-.05l0-.22a20.82,20.82,0,0,1,17.89-17.59h0a34.55,34.55,0,0,0,29.52-38.94h0A34.55,34.55,0,0,0,383.5,227.59Z"/><path id="_Path_6" data-name="&lt;Path&gt;" class="cls-21" d="M390.1,171.77l-19.84,4.55a16.51,16.51,0,0,0-12.39,19.77h0a16.49,16.49,0,0,0,19.77,12.38l.91-.2a9.94,9.94,0,0,1,11,4.82l.05.09a.07.07,0,0,0,.14,0,.41.41,0,0,0,0-.11,9.92,9.92,0,0,1,7.76-9.12h0a16.49,16.49,0,0,0,12.38-19.77h0A16.49,16.49,0,0,0,390.1,171.77Z"/><path id="_Path_7" data-name="&lt;Path&gt;" class="cls-21" d="M89,298.66l-19.51,4.5a16.23,16.23,0,0,0-12.17,19.46h0a16.23,16.23,0,0,0,19.46,12.16l.9-.2a9.76,9.76,0,0,1,10.79,4.73l.05.09a.07.07,0,0,0,.14,0v-.11a9.78,9.78,0,0,1,7.63-9h0a16.23,16.23,0,0,0,12.16-19.46h0A16.23,16.23,0,0,0,89,298.66Z"/><path id="_Path_8" data-name="&lt;Path&gt;" class="cls-21" d="M410.51,329.28l-19.38-5a16.22,16.22,0,0,0-19.78,11.62h0A16.23,16.23,0,0,0,383,355.66l.89.23a9.76,9.76,0,0,1,7.38,9.18v.11a.07.07,0,0,0,.14,0l.05-.09a9.79,9.79,0,0,1,10.92-4.44h0a16.22,16.22,0,0,0,19.78-11.62h0A16.23,16.23,0,0,0,410.51,329.28Z"/><circle class="cls-4" cx="76.48" cy="202.03" r="8.52"/><circle class="cls-4" cx="60.25" cy="222.63" r="3.37"/><circle class="cls-4" cx="62.97" cy="180.39" r="3.37"/><circle class="cls-13" cx="258.15" cy="154.55" r="8.52"/><circle class="cls-13" cx="248.49" cy="178.93" r="3.37"/><circle class="cls-4" cx="419.97" cy="217.42" r="8.52"/><circle class="cls-4" cx="425.92" cy="191.88" r="3.37"/><circle class="cls-4" cx="370.45" cy="156.59" r="3.37"/><circle class="cls-13" cx="243.44" cy="239.99" r="8.52"/><circle class="cls-13" cx="264.11" cy="256.14" r="3.37"/><ellipse class="cls-22" cx="38.99" cy="453.37" rx="29.34" ry="5.93"/><path class="cls-23" d="M30.8,395.23a22.28,22.28,0,1,0,29.41,11.28A22.31,22.31,0,0,0,30.8,395.23Z"/><path class="cls-24" d="M23.64,379.17A39.87,39.87,0,1,0,79,407.79l88.11-39.27,4.91,11,0,0a8.49,8.49,0,0,0-4.3,11.2h0a8.49,8.49,0,0,0,11.2,4.29l15.52-6.92-6.9-15.49-4.9-11,9.61-4.29,7.08,15.87a2.73,2.73,0,0,0,.2-1.53l-5.75-34.28L71.8,391.72A39.92,39.92,0,0,0,23.64,379.17Zm25.3,56.76a22.28,22.28,0,1,1,11.27-29.42A22.31,22.31,0,0,1,48.94,435.93Z"/><path class="cls-25" d="M101.79,397.37,113.47,392l3.2-3.58A6.77,6.77,0,0,0,121,394l-3.14,2.71a2.7,2.7,0,0,1-1.26.61l-4.81.89L103,399.64Z"/><path class="cls-11" d="M123.83,380.41l-7.48,8.39a6.59,6.59,0,0,0,4.41,5.74l6.5-5.63Z"/><ellipse class="cls-22" cx="140.15" cy="466.15" rx="21.78" ry="4.4"/><path class="cls-25" d="M134.63,452l-1.69,10.25s-.3,1.8.05,2.22,1.29.17,1.29.17l-.06,1.29-4,.86-.09-1.86-1.34-12.82Z"/><path class="cls-25" d="M150.28,452.61c-.14,3-.38,6.52-.54,9.59a3,3,0,0,0,1,2.38,15.16,15.16,0,0,1,1.69,1.63,6.73,6.73,0,0,1-2.31.57,6.66,6.66,0,0,1-3.73-.92c0-.4.07-.79.11-1.19l-3-12.33Z"/><path class="cls-6" d="M128.82,452.07c-.56-1.86-1.84-15.12-1.69-19.53-1.11-6.07-1.81-10.6-3.12-17.22-.28-1.45-1-6.59-.29-9.17a23,23,0,0,1,1.61-4.87c.08-.13.56-1.27.77-1.59s.34-1.29.67-1.49.9.23,1.31.23.59.07,1.12.12c3.05.28,6.36.45,9.46.54.57.77.63.73,1.27,1.66a44.06,44.06,0,0,1,4.87,8.66c2.44,6.28,5.13,10.87,5.88,18.21s-.64,17.14-.4,25A6.79,6.79,0,0,1,147,454c-1,.14-2.84.12-3.51-1.69-1.58-4.29-2-9.32-1.9-14.33,0-2.54.37-6.18.65-8.89-1-1.46-2.3-2.79-3.39-4.14a51.38,51.38,0,0,1-4.48-6.79,130.64,130.64,0,0,1,1.16,22.56,79.21,79.21,0,0,1-.89,11c-.23,1.31-1.7,1.85-2.79,1.84S129.16,453.19,128.82,452.07Z"/><path class="cls-25" d="M122,383.38c1-1.1,1.67-2.3,4-3.27,2.74-1.13,7.26-.93,11-1.16s5.62-.36,8.09-1.39c1.9-.79,2.95-1.63,6.15-3,1.69-.72,3.12-1.22,4.08-1.53a25.4,25.4,0,0,1,.45-4.78c.68-3.51,1.75-4.93,2.45-8.35a24.35,24.35,0,0,0,.48-5.44,13.27,13.27,0,0,0,1.32-.15l.2,0c.36-.06.87-.15,1.52-.31a76.41,76.41,0,0,1,.12,8.66,77.69,77.69,0,0,1-1.57,12.56,63.74,63.74,0,0,1-13.24,8.66,61.12,61.12,0,0,1-7.77,3.18q.33,2.24.72,4.5c.49,3,1,5.86,1.6,8.68-2.33.23-4.69.44-7.07.65q-4.46.38-8.8.68A38.38,38.38,0,0,0,122,383.38Z"/><path class="cls-26" d="M134.4,372.67a5.25,5.25,0,0,0-1.74,4.41,4.81,4.81,0,0,0,1.49,2.74l-8.47,1.06a3.54,3.54,0,0,0-.1-4.94Z"/><path class="cls-6" d="M127.48,363.83c1-1.09,4-.58,6,.51a6.25,6.25,0,0,1,2.91,2.81c.5,1.13.53,2.43,1.61,3.09a4.27,4.27,0,0,1,.8.51c1.35,1.16.43,3.1,1.27,5.15s2.61,2,2.57,3.09c-.07,2.16-7.54,5.05-10.07,2.66-1.44-1.37,0-3.2-.72-7.44C130.71,368.05,126.23,365.27,127.48,363.83Z"/><path class="cls-25" d="M130.83,363.58a17.08,17.08,0,0,1,3.15,4.09c.09.19.12.29.54.47s1,.22.89.53-.64.75-.68,1l.94,4.11-1.62.8-5.46,2.7c0-.23,1.63-6.05,1.58-6.37s-.17-1,.19-1.2.67-3.54.81-4a1.72,1.72,0,0,0-.07-1.17C130.94,364,130.83,363.58,130.83,363.58Z"/><path class="cls-25" d="M159.79,350.27l.08,0a.45.45,0,0,0,.22,0,9.91,9.91,0,0,1,2.12-.25,1.69,1.69,0,0,1,1.1.75,2.91,2.91,0,0,0-1.24,1.73c-.15.72.22,1,.05,2a3.94,3.94,0,0,1-.64,1.73c-.6.86-1.77,1.65-2.35,1.33-.31-.17-.29-.58-.43-1.45-.29-1.82-.66-1.75-.8-2.94a3.13,3.13,0,0,1,0-.67,3,3,0,0,1,.32-1.43A1.78,1.78,0,0,1,159.79,350.27Z"/><path id="_Path_9" data-name="&lt;Path&gt;" class="cls-27" d="M147.05,383.85a27.89,27.89,0,0,1-3.86,2.06c-.95.42-1.85.75-2.7,1a4.62,4.62,0,0,1,1.4,3.52,4.43,4.43,0,0,1-1.16,2.66c.86,3.08,1.71,6.15,2.56,9.23A23.26,23.26,0,0,1,131,406.26a22.57,22.57,0,0,1-7.19-1.06q.91-4.84,1.85-9.69A50.32,50.32,0,0,1,122.4,389q-.48-1.16-.87-2.25a5.19,5.19,0,0,1,2.3-6.32l0,0a11.78,11.78,0,0,1,4.11-1.24c4-.59,5.8-.07,9-.19a29.23,29.23,0,0,0,7.48-1.35Z"/><path class="cls-6" d="M152.42,466.21a19.2,19.2,0,0,1-2.4,0,3.11,3.11,0,0,1-1.66-.8,3.51,3.51,0,0,0-1.71-.74l-.16,0c0,.5-.07.91-.11,1.19a2.33,2.33,0,0,0,.57,1.95c.69.58,1.44-.05,3.53,0,1.81,0,2.5.51,4,.08.38-.11,1.2-.35,1.21-.67S154,466.79,152.42,466.21Z"/><path class="cls-6" d="M135.09,464.7h0a3.68,3.68,0,0,0-.81-.1h-.46l-.48,0c.41.07.74.22.75.4s-.33.37-.81.61a1,1,0,0,1-.51.15c-.39,0-.4-.47-.89-.62a3.66,3.66,0,0,0-.67-.06,3.72,3.72,0,0,1-.44,0,5.08,5.08,0,0,1-.61-.16c0,.46-.06.87-.09,1.25a1.24,1.24,0,0,0,.7,1.4,1.93,1.93,0,0,0,1.51,0,5.66,5.66,0,0,0,1.19-.64c1.27-.68,2.17-.64,2.72-1.38a.5.5,0,0,0,.12-.37C136.29,465.09,136.22,465,135.09,464.7Z"/><path class="cls-6" d="M130.88,363.61l1.68,1.45-1.44,2.53c-.65,1.4-1.17,3.19-.45,4.72s2,1.46,2.41,2.89c.54,1.75-1.09,2.57-.84,4.79.21,1.92,1.52,2,1.85,3.8A5.77,5.77,0,0,1,124,388.45a6.63,6.63,0,0,1-1.49-3.09c-.54-2.28.4-2.94-.14-5.2-.46-1.93-1.2-1.77-1.33-3.33-.16-2,1-2.21.94-4.56a10.66,10.66,0,0,1-.06-3,9.72,9.72,0,0,1,.47-1.58C123.19,365.67,126.92,362.21,130.88,363.61Z"/><polygon class="cls-25" points="103.02 399.64 100.53 401.73 97.28 401.55 95.54 401.98 94.47 400.88 96.7 399.53 98.43 398.25 95.38 398.19 95.21 397.57 100.56 396.67 102.28 397.58 103.02 399.64"/></g></g></svg>